<svg xmlns="http://www.w3.org/2000/svg" xmlns:xlink="http://www.w3.org/1999/xlink" width="128" zoomAndPan="magnify" viewBox="0 0 96 95.999999" height="128" preserveAspectRatio="xMidYMid meet" version="1.0"><defs><g/><clipPath id="048fcd9083"><rect x="0" width="57" y="0" height="94"/></clipPath></defs><rect x="-9.6" width="115.2" fill="#ffffff" y="-9.6" height="115.199999" fill-opacity="1"/><rect x="-9.6" width="115.2" fill="#000000" y="-9.6" height="115.199999" fill-opacity="1"/><g transform="matrix(1, 0, 0, 1, 19, -0.000000000000008101)"><g clip-path="url(#048fcd9083)"><g fill="#ffffff" fill-opacity="1"><g transform="translate(0.71733, 74.59968)"><g><path d="M 27.046875 -30.796875 C 22.671875 -40.453125 20.484375 -47.066406 20.484375 -50.640625 C 20.484375 -53.679688 23.09375 -55.921875 28.3125 -57.359375 C 30.875 -56.554688 32.6875 -55.617188 33.75 -54.546875 C 34.820312 -53.484375 35.359375 -52.101562 35.359375 -50.40625 C 35.359375 -46.40625 33.410156 -39.867188 29.515625 -30.796875 C 34.046875 -36.929688 37.523438 -41.15625 39.953125 -43.46875 C 42.378906 -45.789062 44.554688 -46.953125 46.484375 -46.953125 C 48.128906 -46.953125 50.367188 -45.648438 53.203125 -43.046875 C 53.578125 -41.066406 53.765625 -39.570312 53.765625 -38.5625 C 53.765625 -35.945312 52.054688 -33.90625 48.640625 -32.4375 C 45.222656 -30.96875 39.273438 -29.703125 30.796875 -28.640625 C 39.972656 -27.679688 46.117188 -26.570312 49.234375 -25.3125 C 52.359375 -24.0625 53.921875 -22.078125 53.921875 -19.359375 C 53.921875 -17.867188 53.679688 -16.1875 53.203125 -14.3125 C 50.535156 -12.019531 48.507812 -10.875 47.125 -10.875 C 45.09375 -10.875 42.71875 -12.085938 40 -14.515625 C 37.28125 -16.941406 33.785156 -20.957031 29.515625 -26.5625 C 33.890625 -16.957031 36.078125 -10.34375 36.078125 -6.71875 C 36.078125 -5.113281 35.445312 -3.78125 34.1875 -2.71875 C 32.9375 -1.65625 30.953125 -0.75 28.234375 0 C 25.617188 -0.851562 23.789062 -1.785156 22.75 -2.796875 C 21.71875 -3.804688 21.203125 -5.164062 21.203125 -6.875 C 21.203125 -10.988281 23.148438 -17.550781 27.046875 -26.5625 C 22.554688 -20.425781 19.082031 -16.195312 16.625 -13.875 C 14.175781 -11.5625 11.992188 -10.40625 10.078125 -10.40625 C 8.421875 -10.40625 6.179688 -11.707031 3.359375 -14.3125 C 2.984375 -16.289062 2.796875 -17.785156 2.796875 -18.796875 C 2.796875 -21.410156 4.515625 -23.453125 7.953125 -24.921875 C 11.398438 -26.390625 17.335938 -27.628906 25.765625 -28.640625 C 16.484375 -29.703125 10.304688 -30.847656 7.234375 -32.078125 C 4.171875 -33.304688 2.640625 -35.28125 2.640625 -38 C 2.640625 -39.539062 2.878906 -41.222656 3.359375 -43.046875 C 6.023438 -45.335938 8.050781 -46.484375 9.4375 -46.484375 C 11.46875 -46.484375 13.828125 -45.269531 16.515625 -42.84375 C 19.210938 -40.414062 22.722656 -36.398438 27.046875 -30.796875 Z M 28.3125 -31.203125 L 28.3125 -55.515625 C 26.070312 -55.253906 24.523438 -54.707031 23.671875 -53.875 C 22.828125 -53.050781 22.40625 -51.707031 22.40625 -49.84375 C 22.40625 -47.707031 22.816406 -45.34375 23.640625 -42.75 C 24.460938 -40.164062 26.019531 -36.316406 28.3125 -31.203125 Z M 30.484375 -29.921875 L 51.59375 -42.078125 C 50 -44.160156 48.535156 -45.203125 47.203125 -45.203125 C 45.546875 -45.203125 43.488281 -44.175781 41.03125 -42.125 C 38.582031 -40.070312 35.066406 -36.003906 30.484375 -29.921875 Z M 30.484375 -27.4375 L 51.59375 -15.203125 C 52.289062 -16.640625 52.640625 -17.921875 52.640625 -19.046875 C 52.640625 -22.828125 45.253906 -25.625 30.484375 -27.4375 Z M 28.234375 -26.15625 L 28.234375 -1.765625 C 30.472656 -2.078125 32.019531 -2.644531 32.875 -3.46875 C 33.726562 -4.300781 34.15625 -5.648438 34.15625 -7.515625 C 34.15625 -9.648438 33.742188 -12.007812 32.921875 -14.59375 C 32.097656 -17.1875 30.535156 -21.039062 28.234375 -26.15625 Z M 26.078125 -27.4375 L 4.953125 -15.203125 C 6.554688 -13.171875 8.023438 -12.15625 9.359375 -12.15625 C 11.117188 -12.15625 13.1875 -13.15625 15.5625 -15.15625 C 17.9375 -17.15625 21.441406 -21.25 26.078125 -27.4375 Z M 26.078125 -29.921875 L 4.953125 -42.078125 C 4.265625 -40.691406 3.921875 -39.4375 3.921875 -38.3125 C 3.921875 -34.425781 11.304688 -31.628906 26.078125 -29.921875 Z M 26.078125 -29.921875 "/></g></g></g></g></g></svg>