<svg xmlns="http://www.w3.org/2000/svg" xmlns:xlink="http://www.w3.org/1999/xlink" width="128" zoomAndPan="magnify" viewBox="0 0 96 95.999999" height="128" preserveAspectRatio="xMidYMid meet" version="1.0"><defs><g/><clipPath id="b3b047d3b4"><path d="M 48 0 C 21.492188 0 0 21.492188 0 48 C 0 74.507812 21.492188 96 48 96 C 74.507812 96 96 74.507812 96 48 C 96 21.492188 74.507812 0 48 0 Z M 48 0 " clip-rule="nonzero"/></clipPath><clipPath id="ae8e9139c9"><path d="M 0 0 L 96 0 L 96 96 L 0 96 Z M 0 0 " clip-rule="nonzero"/></clipPath><clipPath id="88c8c1fcac"><path d="M 48 0 C 21.492188 0 0 21.492188 0 48 C 0 74.507812 21.492188 96 48 96 C 74.507812 96 96 74.507812 96 48 C 96 21.492188 74.507812 0 48 0 Z M 48 0 " clip-rule="nonzero"/></clipPath><clipPath id="7da9832700"><rect x="0" width="96" y="0" height="96"/></clipPath></defs><g clip-path="url(#b3b047d3b4)"><g transform="matrix(1, 0, 0, 1, 0, -0.000000000000008101)"><g clip-path="url(#7da9832700)"><g clip-path="url(#ae8e9139c9)"><g clip-path="url(#88c8c1fcac)"><rect x="-21.12" width="138.24" fill="#000000" height="138.239999" y="-21.12" fill-opacity="1"/></g></g></g></g></g><g fill="#ffffff" fill-opacity="1"><g transform="translate(8.300627, 59.626464)"><g><path d="M 7.5 0.3125 C 5.6875 0.3125 4.175781 -0.03125 2.96875 -0.71875 C 1.769531 -1.414062 0.898438 -2.34375 0.359375 -3.5 L 2.734375 -6.40625 L 3.109375 -6.40625 C 3.492188 -5.46875 4.046875 -4.726562 4.765625 -4.1875 C 5.484375 -3.644531 6.316406 -3.375 7.265625 -3.375 C 8.328125 -3.375 9.117188 -3.679688 9.640625 -4.296875 C 10.160156 -4.921875 10.421875 -5.929688 10.421875 -7.328125 L 10.421875 -21.421875 L 14.640625 -21.421875 L 14.640625 -7.25 C 14.640625 -4.664062 14.050781 -2.757812 12.875 -1.53125 C 11.695312 -0.300781 9.90625 0.3125 7.5 0.3125 Z M 7.5 0.3125 "/></g></g></g><g fill="#ffffff" fill-opacity="1"><g transform="translate(25.399037, 59.626464)"><g><path d="M 7.390625 0.3125 C 5.578125 0.3125 4.238281 -0.179688 3.375 -1.171875 C 2.507812 -2.171875 2.078125 -3.597656 2.078125 -5.453125 L 2.078125 -16.15625 L 6.140625 -16.15625 L 6.140625 -5.96875 C 6.140625 -4.976562 6.347656 -4.253906 6.765625 -3.796875 C 7.191406 -3.347656 7.851562 -3.125 8.75 -3.125 C 9.875 -3.125 10.75 -3.488281 11.375 -4.21875 C 12 -4.957031 12.3125 -6.117188 12.3125 -7.703125 L 12.3125 -16.15625 L 16.359375 -16.15625 L 16.359375 0 L 12.46875 0 L 12.46875 -2.375 L 12.15625 -2.453125 C 11.632812 -1.523438 11 -0.832031 10.25 -0.375 C 9.507812 0.0820312 8.554688 0.3125 7.390625 0.3125 Z M 7.390625 0.3125 "/></g></g></g><g fill="#ffffff" fill-opacity="1"><g transform="translate(43.903149, 59.626464)"><g><path d="M 2.328125 0 L 2.328125 -16.15625 L 6.21875 -16.15625 L 6.21875 -13.78125 L 6.53125 -13.71875 C 7.539062 -15.550781 9.171875 -16.46875 11.421875 -16.46875 C 13.285156 -16.46875 14.65625 -15.957031 15.53125 -14.9375 C 16.40625 -13.925781 16.84375 -12.445312 16.84375 -10.5 L 16.84375 0 L 12.78125 0 L 12.78125 -10 C 12.78125 -11.070312 12.566406 -11.84375 12.140625 -12.3125 C 11.710938 -12.789062 11.023438 -13.03125 10.078125 -13.03125 C 8.910156 -13.03125 8.003906 -12.65625 7.359375 -11.90625 C 6.710938 -11.15625 6.390625 -9.972656 6.390625 -8.359375 L 6.390625 0 Z M 2.328125 0 "/></g></g></g><g fill="#ffffff" fill-opacity="1"><g transform="translate(62.641544, 59.626464)"><g><path d="M 2.328125 0 L 2.328125 -22.640625 L 6.390625 -22.640625 L 6.390625 -10.078125 L 6.78125 -10.078125 L 11.453125 -16.15625 L 15.578125 -16.15625 L 15.578125 -15.828125 L 10.078125 -8.734375 L 16.1875 -0.359375 L 16.1875 0 L 11.90625 0 L 6.78125 -6.8125 L 6.390625 -6.8125 L 6.390625 0 Z M 2.328125 0 "/></g></g></g><g fill="#ffffff" fill-opacity="1"><g transform="translate(79.403281, 59.626464)"><g><path d="M 4.125 0.125 C 3.613281 0.125 3.160156 0.0195312 2.765625 -0.1875 C 2.367188 -0.394531 2.0625 -0.679688 1.84375 -1.046875 C 1.632812 -1.421875 1.53125 -1.84375 1.53125 -2.3125 C 1.53125 -2.78125 1.632812 -3.195312 1.84375 -3.5625 C 2.0625 -3.9375 2.367188 -4.234375 2.765625 -4.453125 C 3.160156 -4.671875 3.613281 -4.78125 4.125 -4.78125 C 4.65625 -4.78125 5.117188 -4.671875 5.515625 -4.453125 C 5.910156 -4.242188 6.210938 -3.953125 6.421875 -3.578125 C 6.628906 -3.210938 6.734375 -2.796875 6.734375 -2.328125 C 6.734375 -1.617188 6.492188 -1.03125 6.015625 -0.5625 C 5.546875 -0.101562 4.914062 0.125 4.125 0.125 Z M 4.125 0.125 "/></g></g></g></svg>